<svg xmlns="http://www.w3.org/2000/svg" viewBox="0 0 21 21"><path fill-rule="evenodd" d="M16.646,2.847 L0.354,2.847 C0.159,2.847 0.000,2.688 0.000,2.491 C0.000,2.295 0.159,2.136 0.354,2.136 L4.619,2.136 C4.658,1.691 4.795,0.940 5.261,0.459 C5.557,0.154 5.931,-0.000 6.375,-0.000 L9.916,-0.000 C10.360,-0.000 10.734,0.154 11.030,0.459 C11.497,0.940 11.633,1.691 11.672,2.136 L16.646,2.136 C16.841,2.136 17.000,2.295 17.000,2.491 C17.000,2.688 16.841,2.847 16.646,2.847 ZM10.521,0.954 C10.363,0.791 10.165,0.712 9.916,0.712 L6.375,0.712 C6.127,0.712 5.929,0.791 5.770,0.954 C5.485,1.247 5.371,1.763 5.331,2.136 L10.960,2.136 C10.921,1.763 10.806,1.247 10.521,0.954 ZM15.244,19.235 C15.232,19.841 14.852,21.000 13.506,21.000 L3.493,21.000 C2.148,21.000 1.768,19.841 1.755,19.228 L1.106,3.559 L15.894,3.559 L15.244,19.235 ZM12.750,14.949 L4.250,14.949 C4.054,14.949 3.896,15.108 3.896,15.305 C3.896,15.502 4.054,15.661 4.250,15.661 L12.750,15.661 C12.945,15.661 13.104,15.502 13.104,15.305 C13.104,15.108 12.945,14.949 12.750,14.949 ZM12.750,16.729 L4.250,16.729 C4.054,16.729 3.896,16.888 3.896,17.085 C3.896,17.282 4.054,17.441 4.250,17.441 L12.750,17.441 C12.945,17.441 13.104,17.282 13.104,17.085 C13.104,16.888 12.945,16.729 12.750,16.729 ZM12.750,18.508 L4.250,18.508 C4.054,18.508 3.896,18.668 3.896,18.864 C3.896,19.061 4.054,19.220 4.250,19.220 L12.750,19.220 C12.945,19.220 13.104,19.061 13.104,18.864 C13.104,18.668 12.945,18.508 12.750,18.508 Z"/></svg>