<svg xmlns="http://www.w3.org/2000/svg" viewBox="0 0 21 21"><path fill-rule="evenodd" d="M19.154,21.000 L1.846,21.000 C0.828,21.000 -0.000,20.172 -0.000,19.154 L-0.000,13.002 C-0.000,12.662 0.275,12.387 0.615,12.387 L3.076,12.387 C3.416,12.387 3.691,12.662 3.691,13.002 L3.691,17.309 L17.309,17.309 L17.309,13.002 C17.309,12.662 17.584,12.387 17.924,12.387 L20.385,12.387 C20.725,12.387 21.000,12.662 21.000,13.002 L21.000,19.154 C21.000,20.172 20.172,21.000 19.154,21.000 ZM11.013,15.857 C10.768,16.152 10.314,16.152 10.068,15.857 L3.834,8.474 C3.499,8.073 3.787,7.465 4.307,7.465 L7.383,7.465 L7.383,0.615 C7.383,0.275 7.658,-0.000 7.998,-0.000 L13.002,-0.000 C13.342,-0.000 13.617,0.275 13.617,0.615 L13.617,7.465 L16.693,7.465 C17.213,7.465 17.500,8.073 17.165,8.474 L11.013,15.857 Z"/></svg>