<svg xmlns="http://www.w3.org/2000/svg" viewBox="0 0 16 16">
  <metadata><?xpacket begin="﻿" id="W5M0MpCehiHzreSzNTczkc9d"?>
<x:xmpmeta xmlns:x="adobe:ns:meta/" x:xmptk="Adobe XMP Core 5.6-c142 79.160924, 2017/07/13-01:06:39        ">
   <rdf:RDF xmlns:rdf="http://www.w3.org/1999/02/22-rdf-syntax-ns#">
      <rdf:Description rdf:about=""/>
   </rdf:RDF>
</x:xmpmeta>
<?xpacket end="w"?></metadata>
<defs>
    
  </defs>
  <path id="Forma_1" data-name="Forma 1" class="cls-1" d="M51.973,931.667h-5.98A0.666,0.666,0,0,1,45.329,931V919a0.666,0.666,0,0,1,.664-0.667h5.98a0.667,0.667,0,0,0,0-1.333h-5.98A2,2,0,0,0,44,919v12a2,2,0,0,0,1.993,2h5.98A0.667,0.667,0,0,0,51.973,931.667Zm7.829-7.142-4.04-4a0.666,0.666,0,0,0-.933.95l2.887,2.858H49.98a0.667,0.667,0,0,0,0,1.334h7.736l-2.887,2.858a0.667,0.667,0,0,0,.466,1.142,0.66,0.66,0,0,0,.466-0.192l4.04-4A0.669,0.669,0,0,0,59.8,924.525Z" transform="translate(-44 -917)"/>
</svg>
